<svg xmlns="http://www.w3.org/2000/svg" width="1280" height="720" viewBox="0 0 1280 720" role="img" aria-labelledby="title desc">
  <title id="title">Flappy Sheep hero image</title>
  <desc id="desc">A promotional image for Flappy Sheep with a black sheep flying between pipes.</desc>
  <defs>
    <linearGradient id="sky" x1="0" x2="0" y1="0" y2="1">
      <stop offset="0" stop-color="#63d2ff"/>
      <stop offset="0.65" stop-color="#b8efff"/>
      <stop offset="1" stop-color="#e8ffd6"/>
    </linearGradient>
    <linearGradient id="panel" x1="0" x2="1" y1="0" y2="1">
      <stop offset="0" stop-color="#101827" stop-opacity="0.96"/>
      <stop offset="1" stop-color="#1d2a3e" stop-opacity="0.92"/>
    </linearGradient>
    <filter id="shadow" x="-20%" y="-20%" width="140%" height="140%">
      <feDropShadow dx="0" dy="18" stdDeviation="20" flood-color="#102033" flood-opacity="0.35"/>
    </filter>
  </defs>
  <rect width="1280" height="720" fill="url(#sky)"/>
  <circle cx="128" cy="100" r="150" fill="#ffffff" opacity="0.28"/>
  <circle cx="1110" cy="105" r="210" fill="#42dc85" opacity="0.16"/>
  <g fill="#fff" opacity="0.75">
    <ellipse cx="198" cy="165" rx="76" ry="30"/>
    <ellipse cx="260" cy="150" rx="92" ry="42"/>
    <ellipse cx="340" cy="168" rx="72" ry="28"/>
    <ellipse cx="900" cy="120" rx="70" ry="28"/>
    <ellipse cx="958" cy="104" rx="94" ry="40"/>
    <ellipse cx="1040" cy="122" rx="72" ry="28"/>
  </g>
  <rect x="0" y="650" width="1280" height="70" fill="#79cf6e"/>
  <path d="M0 650 C150 605 250 687 382 638 C540 580 655 687 800 636 C968 576 1100 690 1280 628 L1280 720 L0 720Z" fill="#5dbf5e"/>
  <g filter="url(#shadow)">
    <rect x="845" y="-20" width="95" height="275" rx="16" fill="#22995a"/>
    <rect x="820" y="238" width="145" height="42" rx="12" fill="#176c42"/>
    <rect x="1005" y="435" width="95" height="300" rx="16" fill="#22995a"/>
    <rect x="980" y="410" width="145" height="42" rx="12" fill="#176c42"/>
    <rect x="45" y="450" width="90" height="280" rx="16" fill="#22995a" opacity="0.9"/>
    <rect x="20" y="425" width="140" height="42" rx="12" fill="#176c42" opacity="0.9"/>
  </g>
  <g transform="translate(616 328) rotate(-8)" filter="url(#shadow)">
    <ellipse cx="-76" cy="50" rx="18" ry="45" fill="#161616"/>
    <ellipse cx="42" cy="55" rx="18" ry="45" fill="#161616"/>
    <ellipse cx="-28" cy="0" rx="104" ry="78" fill="#f7f7ef"/>
    <ellipse cx="-98" cy="-18" rx="58" ry="52" fill="#f7f7ef"/>
    <ellipse cx="-36" cy="-56" rx="70" ry="46" fill="#f7f7ef"/>
    <ellipse cx="42" cy="-36" rx="60" ry="48" fill="#f7f7ef"/>
    <ellipse cx="88" cy="-10" rx="50" ry="44" fill="#222"/>
    <ellipse cx="105" cy="-22" rx="12" ry="12" fill="#fff"/>
    <circle cx="108" cy="-22" r="5" fill="#111"/>
    <path d="M126 -6 C148 4 150 25 127 34" fill="none" stroke="#111" stroke-width="9" stroke-linecap="round"/>
  </g>
  <g transform="translate(735 260)">
    <g fill="#ffd166" stroke="#b57b18" stroke-width="4">
      <circle cx="-18" cy="-18" r="17"/>
      <circle cx="18" cy="-18" r="17"/>
      <circle cx="-18" cy="18" r="17"/>
      <circle cx="18" cy="18" r="17"/>
    </g>
    <path d="M0 24 C16 50 36 56 62 62" fill="none" stroke="#7a4d0b" stroke-width="5" stroke-linecap="round"/>
  </g>
  <rect x="68" y="70" width="520" height="255" rx="42" fill="url(#panel)" filter="url(#shadow)"/>
  <text x="112" y="132" fill="#89f7b5" font-family="Inter, Arial, sans-serif" font-size="27" font-weight="800" letter-spacing="6">BLACK SHEEP ARCADE</text>
  <text x="112" y="220" fill="#fff" font-family="Inter, Arial, sans-serif" font-size="86" font-weight="900">Flappy Sheep</text>
  <text x="116" y="276" fill="#b9c6d8" font-family="Inter, Arial, sans-serif" font-size="34" font-weight="700">Tap. Dodge. Score.</text>
  <text x="116" y="312" fill="#89f7b5" font-family="Inter, Arial, sans-serif" font-size="22" font-weight="700">Free arcade challenge on Whop</text>
</svg>
