<svg xmlns="http://www.w3.org/2000/svg" width="1280" height="720" viewBox="0 0 1280 720" role="img" aria-labelledby="title desc">
  <title id="title">Flappy Sheep gameplay screenshot</title>
  <desc id="desc">A screenshot-style image of Flappy Sheep gameplay with HUD, pipes, clovers, and the sheep character.</desc>
  <defs>
    <linearGradient id="sky" x1="0" x2="0" y1="0" y2="1">
      <stop offset="0" stop-color="#6fd2ff"/>
      <stop offset="0.66" stop-color="#b9efff"/>
      <stop offset="1" stop-color="#e8ffd7"/>
    </linearGradient>
    <linearGradient id="panel" x1="0" x2="1" y1="0" y2="1">
      <stop offset="0" stop-color="#111827"/>
      <stop offset="1" stop-color="#25364f"/>
    </linearGradient>
    <filter id="shadow" x="-20%" y="-20%" width="140%" height="140%">
      <feDropShadow dx="0" dy="14" stdDeviation="18" flood-color="#102033" flood-opacity="0.35"/>
    </filter>
  </defs>
  <rect width="1280" height="720" fill="#101827"/>
  <rect x="42" y="38" width="1196" height="644" rx="40" fill="url(#panel)" filter="url(#shadow)"/>
  <g>
    <rect x="82" y="72" width="214" height="74" rx="22" fill="#0e1727"/>
    <text x="108" y="104" fill="#89f7b5" font-family="Inter, Arial, sans-serif" font-size="18" font-weight="900" letter-spacing="5">SCORE</text>
    <text x="108" y="138" fill="#fff" font-family="Inter, Arial, sans-serif" font-size="44" font-weight="950">12</text>
    <rect x="320" y="72" width="214" height="74" rx="22" fill="#0e1727"/>
    <text x="346" y="104" fill="#89f7b5" font-family="Inter, Arial, sans-serif" font-size="18" font-weight="900" letter-spacing="5">BEST</text>
    <text x="346" y="138" fill="#fff" font-family="Inter, Arial, sans-serif" font-size="44" font-weight="950">31</text>
    <rect x="558" y="72" width="214" height="74" rx="22" fill="#0e1727"/>
    <text x="584" y="104" fill="#89f7b5" font-family="Inter, Arial, sans-serif" font-size="18" font-weight="900" letter-spacing="5">COINS</text>
    <text x="584" y="138" fill="#fff" font-family="Inter, Arial, sans-serif" font-size="44" font-weight="950">5</text>
  </g>
  <rect x="82" y="170" width="1116" height="462" rx="28" fill="url(#sky)"/>
  <g fill="#fff" opacity="0.74">
    <ellipse cx="206" cy="244" rx="66" ry="24"/>
    <ellipse cx="258" cy="228" rx="84" ry="36"/>
    <ellipse cx="330" cy="246" rx="62" ry="23"/>
    <ellipse cx="890" cy="258" rx="70" ry="28"/>
    <ellipse cx="950" cy="240" rx="92" ry="40"/>
    <ellipse cx="1034" cy="260" rx="70" ry="26"/>
  </g>
  <g filter="url(#shadow)">
    <rect x="730" y="170" width="86" height="196" rx="14" fill="#22995a"/>
    <rect x="706" y="344" width="134" height="40" rx="10" fill="#176c42"/>
    <rect x="730" y="500" width="86" height="132" rx="14" fill="#22995a"/>
    <rect x="706" y="478" width="134" height="40" rx="10" fill="#176c42"/>
    <rect x="980" y="170" width="86" height="258" rx="14" fill="#22995a"/>
    <rect x="956" y="406" width="134" height="40" rx="10" fill="#176c42"/>
    <rect x="980" y="560" width="86" height="72" rx="14" fill="#22995a"/>
    <rect x="956" y="538" width="134" height="40" rx="10" fill="#176c42"/>
  </g>
  <g transform="translate(398 391) rotate(-7)" filter="url(#shadow)">
    <ellipse cx="-54" cy="42" rx="14" ry="36" fill="#111"/>
    <ellipse cx="36" cy="44" rx="14" ry="36" fill="#111"/>
    <ellipse cx="-20" cy="0" rx="82" ry="62" fill="#f8f7ef"/>
    <ellipse cx="-76" cy="-14" rx="46" ry="42" fill="#f8f7ef"/>
    <ellipse cx="-28" cy="-46" rx="56" ry="38" fill="#f8f7ef"/>
    <ellipse cx="38" cy="-30" rx="48" ry="38" fill="#f8f7ef"/>
    <ellipse cx="76" cy="-6" rx="39" ry="35" fill="#1f1f1f"/>
    <ellipse cx="90" cy="-17" rx="10" ry="10" fill="#fff"/>
    <circle cx="93" cy="-17" r="4" fill="#111"/>
  </g>
  <g transform="translate(585 384)" filter="url(#shadow)">
    <g fill="#ffd166" stroke="#a66d12" stroke-width="4">
      <circle cx="-17" cy="-17" r="16"/>
      <circle cx="17" cy="-17" r="16"/>
      <circle cx="-17" cy="17" r="16"/>
      <circle cx="17" cy="17" r="16"/>
    </g>
  </g>
  <rect x="82" y="592" width="1116" height="40" fill="#78cf6e"/>
  <path d="M82 592 C220 560 334 625 492 587 C650 548 808 626 948 588 C1070 556 1140 602 1198 578 L1198 632 L82 632Z" fill="#5cbf5c"/>
  <text x="90" y="674" fill="#c5d2e4" font-family="Inter, Arial, sans-serif" font-size="24" font-weight="800">Screenshot-style preview: tap to fly, dodge pipes, collect clovers, and keep your run alive.</text>
</svg>
