<svg xmlns="http://www.w3.org/2000/svg" width="1280" height="720" viewBox="0 0 1280 720" role="img" aria-labelledby="title desc">
  <title id="title">Flappy Sheep gameplay image</title>
  <desc id="desc">A gameplay promotional image for Flappy Sheep showing score, clovers, and pipe dodging.</desc>
  <defs>
    <linearGradient id="bg" x1="0" x2="0" y1="0" y2="1">
      <stop offset="0" stop-color="#72c9ff"/>
      <stop offset="0.6" stop-color="#b8efff"/>
      <stop offset="1" stop-color="#e9ffd9"/>
    </linearGradient>
    <linearGradient id="card" x1="0" x2="1" y1="0" y2="1">
      <stop offset="0" stop-color="#0f1726"/>
      <stop offset="1" stop-color="#22324a"/>
    </linearGradient>
    <filter id="shadow" x="-20%" y="-20%" width="140%" height="140%">
      <feDropShadow dx="0" dy="16" stdDeviation="18" flood-color="#102033" flood-opacity="0.34"/>
    </filter>
  </defs>
  <rect width="1280" height="720" fill="#101827"/>
  <rect x="50" y="42" width="1180" height="636" rx="48" fill="url(#card)" filter="url(#shadow)"/>
  <rect x="94" y="120" width="1092" height="472" rx="34" fill="url(#bg)"/>
  <g fill="#fff" opacity="0.72">
    <ellipse cx="260" cy="190" rx="72" ry="28"/>
    <ellipse cx="318" cy="174" rx="90" ry="38"/>
    <ellipse cx="398" cy="192" rx="70" ry="27"/>
    <ellipse cx="940" cy="208" rx="58" ry="24"/>
    <ellipse cx="990" cy="194" rx="78" ry="34"/>
    <ellipse cx="1060" cy="210" rx="58" ry="24"/>
  </g>
  <g filter="url(#shadow)">
    <rect x="795" y="120" width="82" height="210" rx="14" fill="#22995a"/>
    <rect x="775" y="308" width="122" height="38" rx="10" fill="#176c42"/>
    <rect x="795" y="446" width="82" height="146" rx="14" fill="#22995a"/>
    <rect x="775" y="424" width="122" height="38" rx="10" fill="#176c42"/>
    <rect x="1012" y="120" width="82" height="260" rx="14" fill="#22995a"/>
    <rect x="992" y="358" width="122" height="38" rx="10" fill="#176c42"/>
    <rect x="1012" y="500" width="82" height="92" rx="14" fill="#22995a"/>
    <rect x="992" y="478" width="122" height="38" rx="10" fill="#176c42"/>
  </g>
  <g transform="translate(450 352) rotate(-9)" filter="url(#shadow)">
    <ellipse cx="-56" cy="40" rx="15" ry="36" fill="#151515"/>
    <ellipse cx="36" cy="42" rx="15" ry="36" fill="#151515"/>
    <ellipse cx="-20" cy="0" rx="86" ry="64" fill="#f8f7ed"/>
    <ellipse cx="-78" cy="-15" rx="47" ry="43" fill="#f8f7ed"/>
    <ellipse cx="-28" cy="-48" rx="58" ry="38" fill="#f8f7ed"/>
    <ellipse cx="38" cy="-32" rx="50" ry="40" fill="#f8f7ed"/>
    <ellipse cx="76" cy="-8" rx="40" ry="36" fill="#222"/>
    <ellipse cx="90" cy="-18" rx="10" ry="10" fill="#fff"/>
    <circle cx="92" cy="-18" r="4" fill="#111"/>
  </g>
  <g transform="translate(645 338)">
    <g fill="#ffd166" stroke="#b57b18" stroke-width="4">
      <circle cx="-16" cy="-16" r="15"/>
      <circle cx="16" cy="-16" r="15"/>
      <circle cx="-16" cy="16" r="15"/>
      <circle cx="16" cy="16" r="15"/>
    </g>
  </g>
  <rect x="94" y="552" width="1092" height="40" fill="#79cf6e"/>
  <path d="M94 552 C205 526 305 570 421 546 C560 516 690 574 810 544 C962 508 1060 574 1186 538 L1186 592 L94 592Z" fill="#5dbf5e"/>
  <g>
    <rect x="104" y="64" width="192" height="72" rx="22" fill="#111a2a" opacity="0.92"/>
    <text x="128" y="96" fill="#89f7b5" font-family="Inter, Arial, sans-serif" font-size="18" font-weight="900" letter-spacing="4">SCORE</text>
    <text x="128" y="126" fill="#fff" font-family="Inter, Arial, sans-serif" font-size="42" font-weight="900">24</text>
    <rect x="318" y="64" width="192" height="72" rx="22" fill="#111a2a" opacity="0.92"/>
    <text x="342" y="96" fill="#89f7b5" font-family="Inter, Arial, sans-serif" font-size="18" font-weight="900" letter-spacing="4">BEST</text>
    <text x="342" y="126" fill="#fff" font-family="Inter, Arial, sans-serif" font-size="42" font-weight="900">31</text>
    <rect x="532" y="64" width="192" height="72" rx="22" fill="#111a2a" opacity="0.92"/>
    <text x="556" y="96" fill="#89f7b5" font-family="Inter, Arial, sans-serif" font-size="18" font-weight="900" letter-spacing="4">COINS</text>
    <text x="556" y="126" fill="#fff" font-family="Inter, Arial, sans-serif" font-size="42" font-weight="900">8</text>
  </g>
  <text x="120" y="644" fill="#fff" font-family="Inter, Arial, sans-serif" font-size="54" font-weight="900">Collect clovers. Beat your best score.</text>
  <text x="122" y="680" fill="#b9c6d8" font-family="Inter, Arial, sans-serif" font-size="26" font-weight="700">Fast free arcade gameplay for your Whop community.</text>
</svg>
