<svg xmlns="http://www.w3.org/2000/svg" width="1280" height="720" viewBox="0 0 1280 720" role="img" aria-labelledby="title desc">
  <title id="title">Flappy Sheep challenge image</title>
  <desc id="desc">A promotional challenge image for Flappy Sheep encouraging players to climb the leaderboard.</desc>
  <defs>
    <linearGradient id="night" x1="0" x2="1" y1="0" y2="1">
      <stop offset="0" stop-color="#101827"/>
      <stop offset="0.52" stop-color="#1e3351"/>
      <stop offset="1" stop-color="#0f1726"/>
    </linearGradient>
    <linearGradient id="gold" x1="0" x2="1" y1="0" y2="1">
      <stop offset="0" stop-color="#ffe08a"/>
      <stop offset="1" stop-color="#ffba3a"/>
    </linearGradient>
    <linearGradient id="green" x1="0" x2="0" y1="0" y2="1">
      <stop offset="0" stop-color="#42dc85"/>
      <stop offset="1" stop-color="#176c42"/>
    </linearGradient>
    <filter id="shadow" x="-20%" y="-20%" width="140%" height="140%">
      <feDropShadow dx="0" dy="18" stdDeviation="20" flood-color="#000" flood-opacity="0.35"/>
    </filter>
  </defs>
  <rect width="1280" height="720" fill="url(#night)"/>
  <circle cx="1084" cy="142" r="170" fill="#42dc85" opacity="0.12"/>
  <circle cx="180" cy="580" r="230" fill="#63d2ff" opacity="0.11"/>
  <g opacity="0.35" fill="#fff">
    <circle cx="134" cy="122" r="4"/>
    <circle cx="256" cy="82" r="3"/>
    <circle cx="425" cy="138" r="5"/>
    <circle cx="1010" cy="340" r="4"/>
    <circle cx="1168" cy="265" r="3"/>
    <circle cx="870" cy="90" r="5"/>
  </g>
  <rect x="58" y="58" width="1164" height="604" rx="48" fill="#111a2a" opacity="0.7" stroke="#ffffff" stroke-opacity="0.12"/>
  <g filter="url(#shadow)">
    <rect x="868" y="0" width="92" height="245" rx="16" fill="url(#green)"/>
    <rect x="842" y="224" width="144" height="42" rx="12" fill="#176c42"/>
    <rect x="868" y="452" width="92" height="268" rx="16" fill="url(#green)"/>
    <rect x="842" y="426" width="144" height="42" rx="12" fill="#176c42"/>
    <rect x="1060" y="0" width="92" height="305" rx="16" fill="url(#green)"/>
    <rect x="1034" y="284" width="144" height="42" rx="12" fill="#176c42"/>
    <rect x="1060" y="515" width="92" height="205" rx="16" fill="url(#green)"/>
    <rect x="1034" y="490" width="144" height="42" rx="12" fill="#176c42"/>
  </g>
  <g transform="translate(635 365) rotate(-10)" filter="url(#shadow)">
    <ellipse cx="-62" cy="45" rx="16" ry="40" fill="#111"/>
    <ellipse cx="42" cy="48" rx="16" ry="40" fill="#111"/>
    <ellipse cx="-26" cy="0" rx="94" ry="70" fill="#f8f7ef"/>
    <ellipse cx="-92" cy="-18" rx="52" ry="48" fill="#f8f7ef"/>
    <ellipse cx="-35" cy="-52" rx="64" ry="42" fill="#f8f7ef"/>
    <ellipse cx="42" cy="-35" rx="56" ry="44" fill="#f8f7ef"/>
    <ellipse cx="84" cy="-8" rx="44" ry="40" fill="#1f1f1f"/>
    <ellipse cx="100" cy="-20" rx="11" ry="11" fill="#fff"/>
    <circle cx="103" cy="-20" r="4" fill="#111"/>
    <path d="M118 -5 C138 5 140 24 120 34" fill="none" stroke="#111" stroke-width="8" stroke-linecap="round"/>
  </g>
  <g transform="translate(742 286)" filter="url(#shadow)">
    <g fill="url(#gold)" stroke="#9a6812" stroke-width="4">
      <circle cx="-18" cy="-18" r="17"/>
      <circle cx="18" cy="-18" r="17"/>
      <circle cx="-18" cy="18" r="17"/>
      <circle cx="18" cy="18" r="17"/>
    </g>
  </g>
  <g transform="translate(105 105)">
    <text x="0" y="0" fill="#89f7b5" font-family="Inter, Arial, sans-serif" font-size="28" font-weight="900" letter-spacing="7">BLACK SHEEP CHALLENGE</text>
    <text x="0" y="98" fill="#fff" font-family="Inter, Arial, sans-serif" font-size="82" font-weight="950">Climb the score board</text>
    <text x="4" y="155" fill="#c5d2e4" font-family="Inter, Arial, sans-serif" font-size="34" font-weight="750">Every pipe counts. Every clover helps.</text>
  </g>
  <g transform="translate(112 365)" filter="url(#shadow)">
    <rect x="0" y="0" width="360" height="170" rx="30" fill="#0d1524" stroke="#ffffff" stroke-opacity="0.12"/>
    <text x="38" y="55" fill="#89f7b5" font-family="Inter, Arial, sans-serif" font-size="22" font-weight="900" letter-spacing="4">BEST RUN</text>
    <text x="38" y="132" fill="url(#gold)" font-family="Inter, Arial, sans-serif" font-size="82" font-weight="950">31</text>
    <text x="168" y="132" fill="#fff" font-family="Inter, Arial, sans-serif" font-size="40" font-weight="850">points</text>
  </g>
  <g transform="translate(112 575)">
    <rect x="0" y="-48" width="592" height="82" rx="41" fill="#42dc85"/>
    <text x="36" y="5" fill="#06140d" font-family="Inter, Arial, sans-serif" font-size="34" font-weight="950">Join free and beat your best score</text>
  </g>
</svg>
